<svg width="59" height="82" viewBox="0 0 59 82" fill="none" xmlns="http://www.w3.org/2000/svg">
<path d="M43.3413 34.3819L47.8977 10.2598H53.9729L58.4697 34.3819H53.556L52.7519 29.2894H49.208L48.3742 34.3819H43.3413ZM49.6845 26.1029H52.2456L50.9651 16.6923L49.6845 26.1029Z" fill="#011627"/>
<path d="M34.7541 34.3819V14.2206H31.1208V10.2598H43.7179V14.2206H40.1145V34.3819H34.7541Z" fill="#011627"/>
<path d="M19.2588 34.3819V10.2598H30.0988V13.893H24.5895V19.8788H28.7885V23.5716H24.5895V30.7784H30.1584V34.3819H19.2588Z" fill="#011627"/>
<path d="M2.56519 34.3819V10.2598H6.31751L11.2611 21.8741V10.2598H15.6685V34.3819H12.0651L7.12158 21.8741V34.3819H2.56519Z" fill="#011627"/>
<path d="M44.3725 81.9346C42.1469 81.9346 40.4631 81.4514 39.321 80.485C38.1496 79.5479 37.564 77.9959 37.564 75.8288C37.564 73.6618 38.0325 72.0951 38.9696 71.1288C39.9067 70.1624 41.4148 69.6792 43.494 69.6792H46.1295C47.7109 69.6792 49.1019 69.972 50.3025 70.5577C51.5324 71.1434 52.7477 72.2562 53.9484 73.8961L58.9999 80.7925H52.4549L49.2483 76.6195C48.4869 75.6531 47.8866 75.0235 47.4473 74.7307C46.9788 74.4671 46.276 74.3354 45.3389 74.3354H44.7239C44.0797 74.3354 43.6258 74.4379 43.3622 74.6428C43.0694 74.8478 42.9229 75.2285 42.9229 75.7849C42.9229 76.722 43.5525 77.1906 44.8118 77.1906C45.6317 77.1906 46.5542 77.1173 47.5791 76.9709V81.7149C46.4077 81.8614 45.3389 81.9346 44.3725 81.9346Z" fill="#87CEEB"/>
<path d="M33.1264 47.8474C33.1264 46.8811 33.0239 46.1929 32.8189 45.7829H7.95679V40.6436H51.7511V45.7829H48.1491V70.1179H41.9995V65.945C41.0917 66.2085 39.8764 66.3403 38.3536 66.3403C35.2495 66.3403 32.775 65.6375 30.9301 64.2318C29.0852 62.7969 28.1628 60.8056 28.1628 58.2579V55.7102C28.1628 54.9781 27.8846 54.4803 27.3282 54.2167C26.8011 53.9531 25.8493 53.8214 24.473 53.8214H24.2534C24.5169 54.3192 24.6487 55.0074 24.6487 55.8859V60.3664C24.6487 62.9141 23.8873 64.8322 22.3645 66.1207C20.871 67.3799 18.7187 68.0095 15.9074 68.0095C14.5311 68.0095 13.2426 67.8631 12.0419 67.5702V62.0355C13.3011 62.2991 14.5018 62.4309 15.6438 62.4309C17.5473 62.4309 18.499 61.6695 18.499 60.1467V56.2812C18.499 55.432 18.338 54.7438 18.0159 54.2167H13.6672V48.5502H25.7029C29.5684 48.5502 31.9404 49.5605 32.8189 51.5811C33.0239 51.2004 33.1264 50.6587 33.1264 49.9559V47.8474ZM41.9995 45.7829H38.8368C39.0125 46.3686 39.1004 47.0568 39.1004 47.8474V51.2297C39.1004 54.6267 37.4605 56.413 34.1806 56.5887V57.3794C34.1806 59.5464 35.6888 60.6299 38.705 60.6299C39.9935 60.6299 41.0917 60.5128 41.9995 60.2785V45.7829Z" fill="#87CEEB"/>
<path d="M3.25213 8H1.73464V0.989203H3.25213V4.14558L4.40542 0.989203H6.02407L4.73927 4.37826L6.14547 8H4.456L3.25213 4.65141V8ZM8.09118 2.29424C8.44863 2.09866 8.81957 2.00086 9.204 2.00086C9.58843 2.00086 9.8953 2.10877 10.1246 2.32459C10.3607 2.53367 10.4787 2.85066 10.4787 3.27555V8H8.93085V3.64987C8.93085 3.488 8.84318 3.40707 8.66782 3.40707C8.49247 3.40707 8.3306 3.45091 8.18223 3.53858V8H6.65462V2.03121H8.09118V2.29424ZM13.5834 3.6094C13.5834 3.35311 13.4417 3.22497 13.1585 3.22497C12.8752 3.22497 12.7336 3.35311 12.7336 3.6094V6.42181C12.7336 6.6781 12.8752 6.80624 13.1585 6.80624C13.4417 6.80624 13.5834 6.6781 13.5834 6.42181V3.6094ZM11.2363 3.55882C11.2363 3.04624 11.3948 2.64832 11.7118 2.36506C12.0355 2.07505 12.5178 1.93005 13.1585 1.93005C13.7992 1.93005 14.2781 2.07505 14.595 2.36506C14.9188 2.64832 15.0806 3.04624 15.0806 3.55882V6.47239C15.0806 6.98497 14.9188 7.38626 14.595 7.67627C14.2781 7.95953 13.7992 8.10117 13.1585 8.10117C12.5178 8.10117 12.0355 7.95953 11.7118 7.67627C11.3948 7.38626 11.2363 6.98497 11.2363 6.47239V3.55882ZM20.151 2.03121H21.6989L20.7783 8H19.0685L18.8359 5.8654L18.6234 4.095L18.1581 8H16.4585L15.4873 2.03121H17.0756L17.3892 6.02726L17.9153 2.03121H19.3012L19.8576 6.0475L20.151 2.03121ZM26.8337 8H25.296V5.82493L23.6268 0.989203H25.1847L25.5186 2.05144C25.7816 2.881 25.9705 3.61614 26.0851 4.25686C26.2133 3.60266 26.4055 2.86077 26.6618 2.03121L26.9855 0.989203H28.503L26.8337 5.82493V8ZM31.2084 3.6094C31.2084 3.35311 31.0667 3.22497 30.7835 3.22497C30.5002 3.22497 30.3586 3.35311 30.3586 3.6094V6.42181C30.3586 6.6781 30.5002 6.80624 30.7835 6.80624C31.0667 6.80624 31.2084 6.6781 31.2084 6.42181V3.6094ZM28.8613 3.55882C28.8613 3.04624 29.0198 2.64832 29.3368 2.36506C29.6605 2.07505 30.1428 1.93005 30.7835 1.93005C31.4242 1.93005 31.903 2.07505 32.22 2.36506C32.5438 2.64832 32.7056 3.04624 32.7056 3.55882V6.47239C32.7056 6.98497 32.5438 7.38626 32.22 7.67627C31.903 7.95953 31.4242 8.10117 30.7835 8.10117C30.1428 8.10117 29.6605 7.95953 29.3368 7.67627C29.0198 7.38626 28.8613 6.98497 28.8613 6.47239V3.55882ZM35.8033 2.03121H37.3309V8H35.8943V7.72685C35.5639 7.90895 35.1862 8 34.7613 8C34.3431 8 34.0228 7.88535 33.8002 7.65604C33.5776 7.42673 33.4664 7.09625 33.4664 6.66461V2.03121H35.0142V6.36111C35.0142 6.53647 35.112 6.62414 35.3076 6.62414C35.5032 6.62414 35.6684 6.58368 35.8033 6.50274V2.03121ZM40.8191 2.00086H40.991V3.40707H40.7584C40.3807 3.40707 40.0502 3.47451 39.7669 3.6094V8H38.2393V2.03121H39.6759V2.43588C40.0198 2.2268 40.2593 2.10203 40.3942 2.06156C40.5358 2.02109 40.6774 2.00086 40.8191 2.00086Z" fill="black"/>
</svg>
